<svg width="344" height="344" xmlns="http://www.w3.org/2000/svg" xmlns:xlink="http://www.w3.org/1999/xlink" overflow="hidden"><defs><clipPath id="clip0"><path d="M212 74 556 74 556 418 212 418Z" fill-rule="evenodd" clip-rule="evenodd"/></clipPath></defs><g clip-path="url(#clip0)" transform="translate(-212 -74)"><path d="M213.333 75.5555 326.719 75.5555 326.719 188.941 213.333 188.941Z" fill="#D19F9F" fill-rule="evenodd"/><path d="M326.719 75.5555 440.105 75.5555 440.105 188.941 326.719 188.941Z" fill="#F6F8FF" fill-rule="evenodd"/><path d="M440.105 75.5555 553.491 75.5555 553.491 188.941 440.105 188.941Z" fill="#570F2C" fill-rule="evenodd"/><path d="M213.333 188.941 326.719 188.941 326.719 302.327 213.333 302.327Z" fill="#1C3A13" fill-rule="evenodd"/><path d="M326.719 188.941 440.105 188.941 440.105 302.327 326.719 302.327Z" fill="#BDB4BF" fill-rule="evenodd"/><path d="M440.105 188.941 553.491 188.941 553.491 302.327 440.105 302.327Z" fill="#FFE066" fill-rule="evenodd"/><path d="M213.333 302.327 326.719 302.327 326.719 415.713 213.333 415.713Z" fill="#D9D9D9" fill-rule="evenodd"/><path d="M326.719 302.327 440.105 302.327 440.105 415.713 326.719 415.713Z" fill="#247BA0" fill-rule="evenodd"/><path d="M440.105 302.327 553.491 302.327 553.491 415.713 440.105 415.713Z" fill="#BC8DA7" fill-rule="evenodd"/><path d="M326.719 74.8888 326.719 416.38" stroke="#000000" stroke-width="1.33333" stroke-linejoin="round" stroke-miterlimit="10" fill="none" fill-rule="evenodd"/><path d="M440.105 74.8888 440.105 416.38" stroke="#000000" stroke-width="1.33333" stroke-linejoin="round" stroke-miterlimit="10" fill="none" fill-rule="evenodd"/><path d="M212.667 188.941 554.157 188.941" stroke="#000000" stroke-width="1.33333" stroke-linejoin="round" stroke-miterlimit="10" fill="none" fill-rule="evenodd"/><path d="M212.667 302.327 554.157 302.327" stroke="#000000" stroke-width="1.33333" stroke-linejoin="round" stroke-miterlimit="10" fill="none" fill-rule="evenodd"/><path d="M213.333 74.8888 213.333 416.38" stroke="#000000" stroke-width="1.33333" stroke-linejoin="round" stroke-miterlimit="10" fill="none" fill-rule="evenodd"/><path d="M553.491 74.8888 553.491 416.38" stroke="#000000" stroke-width="1.33333" stroke-linejoin="round" stroke-miterlimit="10" fill="none" fill-rule="evenodd"/><path d="M212.667 75.5555 554.157 75.5555" stroke="#000000" stroke-width="1.33333" stroke-linejoin="round" stroke-miterlimit="10" fill="none" fill-rule="evenodd"/><path d="M212.667 415.713 554.157 415.713" stroke="#000000" stroke-width="1.33333" stroke-linejoin="round" stroke-miterlimit="10" fill="none" fill-rule="evenodd"/></g></svg>